<mxfile host="app.diagrams.net" modified="2024-01-04T09:57:33.761Z" agent="Mozilla/5.0 (Windows NT 10.0; Win64; x64) AppleWebKit/537.36 (KHTML, like Gecko) Chrome/120.0.0.0 Safari/537.36" etag="U12vVfK2rEbsV_nYppGa" version="22.1.16" type="github">
  <diagram name="Page-1" id="5z9JhxZ2LXVQe261_9Ux">
    <mxGraphModel dx="1400" dy="696" grid="1" gridSize="10" guides="1" tooltips="1" connect="1" arrows="1" fold="1" page="1" pageScale="1" pageWidth="850" pageHeight="1100" math="0" shadow="0">
      <root>
        <mxCell id="0" />
        <mxCell id="1" parent="0" />
        <mxCell id="OibQYzFPgmX8QQOxZoUr-1" value="" style="edgeStyle=orthogonalEdgeStyle;rounded=0;orthogonalLoop=1;jettySize=auto;html=1;strokeColor=#CC0000;" edge="1" parent="1" source="opBt1St4BZjjfpRbZEwM-1" target="dyvwr03DCd8j8Xf0D3im-2">
          <mxGeometry relative="1" as="geometry" />
        </mxCell>
        <mxCell id="opBt1St4BZjjfpRbZEwM-1" value="AUXILARY BATTERY&lt;br&gt;14V" style="rounded=0;whiteSpace=wrap;html=1;fillColor=#dae8fc;strokeColor=#6c8ebf;" parent="1" vertex="1">
          <mxGeometry x="15" y="20" width="100" height="50" as="geometry" />
        </mxCell>
        <mxCell id="opBt1St4BZjjfpRbZEwM-2" value="BRAKE LIGHT" style="rounded=0;whiteSpace=wrap;html=1;" parent="1" vertex="1">
          <mxGeometry x="420" y="100" width="100" height="50" as="geometry" />
        </mxCell>
        <mxCell id="OibQYzFPgmX8QQOxZoUr-5" value="" style="edgeStyle=orthogonalEdgeStyle;rounded=0;orthogonalLoop=1;jettySize=auto;html=1;strokeColor=#CC0000;" edge="1" parent="1" source="opBt1St4BZjjfpRbZEwM-3" target="opBt1St4BZjjfpRbZEwM-4">
          <mxGeometry relative="1" as="geometry" />
        </mxCell>
        <mxCell id="opBt1St4BZjjfpRbZEwM-3" value="KILL SWITCH 1" style="rounded=0;whiteSpace=wrap;html=1;" parent="1" vertex="1">
          <mxGeometry x="286.88" y="20" width="100" height="50" as="geometry" />
        </mxCell>
        <mxCell id="OibQYzFPgmX8QQOxZoUr-6" value="" style="edgeStyle=orthogonalEdgeStyle;rounded=0;orthogonalLoop=1;jettySize=auto;html=1;strokeColor=#CC0000;" edge="1" parent="1" source="opBt1St4BZjjfpRbZEwM-4" target="opBt1St4BZjjfpRbZEwM-5">
          <mxGeometry relative="1" as="geometry" />
        </mxCell>
        <mxCell id="opBt1St4BZjjfpRbZEwM-4" value="KILL SWITCH 2" style="rounded=0;whiteSpace=wrap;html=1;" parent="1" vertex="1">
          <mxGeometry x="420" y="20" width="100" height="50" as="geometry" />
        </mxCell>
        <mxCell id="OibQYzFPgmX8QQOxZoUr-7" value="" style="edgeStyle=orthogonalEdgeStyle;rounded=0;orthogonalLoop=1;jettySize=auto;html=1;strokeColor=#CC0000;" edge="1" parent="1" source="opBt1St4BZjjfpRbZEwM-5" target="opBt1St4BZjjfpRbZEwM-7">
          <mxGeometry relative="1" as="geometry" />
        </mxCell>
        <mxCell id="OibQYzFPgmX8QQOxZoUr-38" style="edgeStyle=orthogonalEdgeStyle;rounded=0;orthogonalLoop=1;jettySize=auto;html=1;entryX=0.5;entryY=0;entryDx=0;entryDy=0;strokeColor=#CC0000;" edge="1" parent="1" source="opBt1St4BZjjfpRbZEwM-5" target="dyvwr03DCd8j8Xf0D3im-61">
          <mxGeometry relative="1" as="geometry">
            <Array as="points">
              <mxPoint x="670" y="45" />
              <mxPoint x="670" y="160" />
              <mxPoint x="337" y="160" />
            </Array>
          </mxGeometry>
        </mxCell>
        <mxCell id="opBt1St4BZjjfpRbZEwM-5" value="BOTS" style="rounded=0;whiteSpace=wrap;html=1;" parent="1" vertex="1">
          <mxGeometry x="560" y="20" width="100" height="50" as="geometry" />
        </mxCell>
        <mxCell id="OibQYzFPgmX8QQOxZoUr-3" value="" style="edgeStyle=orthogonalEdgeStyle;rounded=0;orthogonalLoop=1;jettySize=auto;html=1;strokeColor=#CC0000;" edge="1" parent="1" source="opBt1St4BZjjfpRbZEwM-6" target="dyvwr03DCd8j8Xf0D3im-6">
          <mxGeometry relative="1" as="geometry" />
        </mxCell>
        <mxCell id="opBt1St4BZjjfpRbZEwM-6" value="BUCK&lt;br&gt;12V" style="rounded=0;whiteSpace=wrap;html=1;" parent="1" vertex="1">
          <mxGeometry x="150" y="100" width="100" height="50" as="geometry" />
        </mxCell>
        <mxCell id="OibQYzFPgmX8QQOxZoUr-11" value="" style="edgeStyle=orthogonalEdgeStyle;rounded=0;orthogonalLoop=1;jettySize=auto;html=1;strokeColor=#CC0000;" edge="1" parent="1" source="opBt1St4BZjjfpRbZEwM-7" target="dyvwr03DCd8j8Xf0D3im-24">
          <mxGeometry relative="1" as="geometry" />
        </mxCell>
        <mxCell id="opBt1St4BZjjfpRbZEwM-7" value="RTDS BUTTON" style="rounded=0;whiteSpace=wrap;html=1;" parent="1" vertex="1">
          <mxGeometry x="690" y="20" width="100" height="50" as="geometry" />
        </mxCell>
        <mxCell id="OibQYzFPgmX8QQOxZoUr-27" value="" style="edgeStyle=orthogonalEdgeStyle;rounded=0;orthogonalLoop=1;jettySize=auto;html=1;" edge="1" parent="1" source="opBt1St4BZjjfpRbZEwM-8" target="dyvwr03DCd8j8Xf0D3im-48">
          <mxGeometry relative="1" as="geometry" />
        </mxCell>
        <mxCell id="opBt1St4BZjjfpRbZEwM-8" value="Accumulator" style="rounded=0;whiteSpace=wrap;html=1;fillColor=#dae8fc;strokeColor=#6c8ebf;" parent="1" vertex="1">
          <mxGeometry x="15" y="310" width="100" height="50" as="geometry" />
        </mxCell>
        <mxCell id="OibQYzFPgmX8QQOxZoUr-34" value="" style="edgeStyle=orthogonalEdgeStyle;rounded=0;orthogonalLoop=1;jettySize=auto;html=1;" edge="1" parent="1" source="opBt1St4BZjjfpRbZEwM-9" target="opBt1St4BZjjfpRbZEwM-10">
          <mxGeometry relative="1" as="geometry" />
        </mxCell>
        <mxCell id="opBt1St4BZjjfpRbZEwM-9" value="AIR" style="rounded=0;whiteSpace=wrap;html=1;" parent="1" vertex="1">
          <mxGeometry x="286.88" y="400" width="100" height="50" as="geometry" />
        </mxCell>
        <mxCell id="OibQYzFPgmX8QQOxZoUr-35" value="" style="edgeStyle=orthogonalEdgeStyle;rounded=0;orthogonalLoop=1;jettySize=auto;html=1;" edge="1" parent="1" source="opBt1St4BZjjfpRbZEwM-10" target="opBt1St4BZjjfpRbZEwM-11">
          <mxGeometry relative="1" as="geometry" />
        </mxCell>
        <mxCell id="opBt1St4BZjjfpRbZEwM-10" value="Fuse" style="rounded=0;whiteSpace=wrap;html=1;" parent="1" vertex="1">
          <mxGeometry x="420" y="400" width="100" height="50" as="geometry" />
        </mxCell>
        <mxCell id="OibQYzFPgmX8QQOxZoUr-39" style="edgeStyle=orthogonalEdgeStyle;rounded=0;orthogonalLoop=1;jettySize=auto;html=1;entryX=0.5;entryY=1;entryDx=0;entryDy=0;strokeWidth=3;strokeColor=#000066;" edge="1" parent="1" source="opBt1St4BZjjfpRbZEwM-11" target="dyvwr03DCd8j8Xf0D3im-41">
          <mxGeometry relative="1" as="geometry">
            <Array as="points">
              <mxPoint x="620" y="525" />
              <mxPoint x="620" y="380" />
              <mxPoint x="740" y="380" />
            </Array>
          </mxGeometry>
        </mxCell>
        <mxCell id="OibQYzFPgmX8QQOxZoUr-40" style="edgeStyle=orthogonalEdgeStyle;rounded=0;orthogonalLoop=1;jettySize=auto;html=1;entryX=0;entryY=0.5;entryDx=0;entryDy=0;strokeWidth=3;strokeColor=#000066;" edge="1" parent="1" source="opBt1St4BZjjfpRbZEwM-11" target="opBt1St4BZjjfpRbZEwM-14">
          <mxGeometry relative="1" as="geometry">
            <Array as="points">
              <mxPoint x="620" y="525" />
              <mxPoint x="620" y="425" />
            </Array>
          </mxGeometry>
        </mxCell>
        <mxCell id="OibQYzFPgmX8QQOxZoUr-43" style="edgeStyle=orthogonalEdgeStyle;rounded=0;orthogonalLoop=1;jettySize=auto;html=1;entryX=0;entryY=0.5;entryDx=0;entryDy=0;strokeWidth=3;strokeColor=#000066;" edge="1" parent="1" source="opBt1St4BZjjfpRbZEwM-11" target="opBt1St4BZjjfpRbZEwM-12">
          <mxGeometry relative="1" as="geometry">
            <Array as="points">
              <mxPoint x="620" y="525" />
              <mxPoint x="620" y="605" />
            </Array>
          </mxGeometry>
        </mxCell>
        <mxCell id="opBt1St4BZjjfpRbZEwM-11" value="Controller" style="rounded=0;whiteSpace=wrap;html=1;" parent="1" vertex="1">
          <mxGeometry x="420" y="500" width="100" height="50" as="geometry" />
        </mxCell>
        <mxCell id="opBt1St4BZjjfpRbZEwM-12" value="Accelerator" style="rounded=0;whiteSpace=wrap;html=1;" parent="1" vertex="1">
          <mxGeometry x="690" y="580" width="100" height="50" as="geometry" />
        </mxCell>
        <mxCell id="opBt1St4BZjjfpRbZEwM-13" value="Drive/Reverse" style="rounded=0;whiteSpace=wrap;html=1;" parent="1" vertex="1">
          <mxGeometry x="690" y="500" width="100" height="50" as="geometry" />
        </mxCell>
        <mxCell id="opBt1St4BZjjfpRbZEwM-14" value="speed selector" style="rounded=0;whiteSpace=wrap;html=1;" parent="1" vertex="1">
          <mxGeometry x="690" y="400" width="100" height="50" as="geometry" />
        </mxCell>
        <mxCell id="OibQYzFPgmX8QQOxZoUr-2" value="" style="edgeStyle=orthogonalEdgeStyle;rounded=0;orthogonalLoop=1;jettySize=auto;html=1;strokeColor=#CC0000;" edge="1" parent="1" source="dyvwr03DCd8j8Xf0D3im-2" target="opBt1St4BZjjfpRbZEwM-6">
          <mxGeometry relative="1" as="geometry" />
        </mxCell>
        <mxCell id="dyvwr03DCd8j8Xf0D3im-2" value="SWITCH&lt;br&gt;" style="rounded=0;whiteSpace=wrap;html=1;" parent="1" vertex="1">
          <mxGeometry x="15" y="100" width="100" height="50" as="geometry" />
        </mxCell>
        <mxCell id="OibQYzFPgmX8QQOxZoUr-4" value="" style="edgeStyle=orthogonalEdgeStyle;rounded=0;orthogonalLoop=1;jettySize=auto;html=1;strokeColor=#CC0000;" edge="1" parent="1" source="dyvwr03DCd8j8Xf0D3im-6" target="opBt1St4BZjjfpRbZEwM-3">
          <mxGeometry relative="1" as="geometry" />
        </mxCell>
        <mxCell id="OibQYzFPgmX8QQOxZoUr-18" style="edgeStyle=orthogonalEdgeStyle;rounded=0;orthogonalLoop=1;jettySize=auto;html=1;entryX=0;entryY=0.5;entryDx=0;entryDy=0;strokeColor=#CC0000;" edge="1" parent="1" source="dyvwr03DCd8j8Xf0D3im-6" target="dyvwr03DCd8j8Xf0D3im-8">
          <mxGeometry relative="1" as="geometry">
            <Array as="points">
              <mxPoint x="260" y="45" />
              <mxPoint x="260" y="125" />
            </Array>
          </mxGeometry>
        </mxCell>
        <mxCell id="OibQYzFPgmX8QQOxZoUr-20" style="edgeStyle=orthogonalEdgeStyle;rounded=0;orthogonalLoop=1;jettySize=auto;html=1;entryX=0.5;entryY=0;entryDx=0;entryDy=0;strokeColor=#CC0000;" edge="1" parent="1" source="dyvwr03DCd8j8Xf0D3im-6" target="dyvwr03DCd8j8Xf0D3im-50">
          <mxGeometry relative="1" as="geometry">
            <Array as="points">
              <mxPoint x="260" y="45" />
              <mxPoint x="260" y="170" />
              <mxPoint x="200" y="170" />
            </Array>
          </mxGeometry>
        </mxCell>
        <mxCell id="dyvwr03DCd8j8Xf0D3im-6" value="KEY SWITCH ON" style="rounded=0;whiteSpace=wrap;html=1;" parent="1" vertex="1">
          <mxGeometry x="150" y="20" width="100" height="50" as="geometry" />
        </mxCell>
        <mxCell id="OibQYzFPgmX8QQOxZoUr-19" value="" style="edgeStyle=orthogonalEdgeStyle;rounded=0;orthogonalLoop=1;jettySize=auto;html=1;strokeColor=#CC0000;" edge="1" parent="1" source="dyvwr03DCd8j8Xf0D3im-8" target="opBt1St4BZjjfpRbZEwM-2">
          <mxGeometry relative="1" as="geometry" />
        </mxCell>
        <mxCell id="dyvwr03DCd8j8Xf0D3im-8" value="APPLY BRAKE" style="rounded=0;whiteSpace=wrap;html=1;" parent="1" vertex="1">
          <mxGeometry x="286.88" y="100" width="100" height="50" as="geometry" />
        </mxCell>
        <mxCell id="OibQYzFPgmX8QQOxZoUr-13" style="edgeStyle=orthogonalEdgeStyle;rounded=0;orthogonalLoop=1;jettySize=auto;html=1;entryX=0.5;entryY=0;entryDx=0;entryDy=0;strokeColor=#CC0000;" edge="1" parent="1" source="dyvwr03DCd8j8Xf0D3im-24" target="dyvwr03DCd8j8Xf0D3im-34">
          <mxGeometry relative="1" as="geometry">
            <Array as="points">
              <mxPoint x="740" y="170" />
              <mxPoint x="470" y="170" />
            </Array>
          </mxGeometry>
        </mxCell>
        <mxCell id="dyvwr03DCd8j8Xf0D3im-24" value="FEEDBACK RELAY" style="rounded=0;whiteSpace=wrap;html=1;" parent="1" vertex="1">
          <mxGeometry x="690" y="100" width="100" height="50" as="geometry" />
        </mxCell>
        <mxCell id="dyvwr03DCd8j8Xf0D3im-26" value="BUCK&lt;br&gt;5V" style="rounded=0;whiteSpace=wrap;html=1;" parent="1" vertex="1">
          <mxGeometry x="740" y="180" width="100" height="50" as="geometry" />
        </mxCell>
        <mxCell id="OibQYzFPgmX8QQOxZoUr-24" value="" style="edgeStyle=orthogonalEdgeStyle;rounded=0;orthogonalLoop=1;jettySize=auto;html=1;strokeColor=#007FFF;" edge="1" parent="1" source="dyvwr03DCd8j8Xf0D3im-34" target="dyvwr03DCd8j8Xf0D3im-39">
          <mxGeometry relative="1" as="geometry" />
        </mxCell>
        <mxCell id="dyvwr03DCd8j8Xf0D3im-34" value="DELAY" style="rounded=0;whiteSpace=wrap;html=1;fillColor=#f8cecc;strokeColor=#b85450;" parent="1" vertex="1">
          <mxGeometry x="420" y="220" width="100" height="50" as="geometry" />
        </mxCell>
        <mxCell id="OibQYzFPgmX8QQOxZoUr-25" style="edgeStyle=orthogonalEdgeStyle;rounded=0;orthogonalLoop=1;jettySize=auto;html=1;entryX=0.5;entryY=0;entryDx=0;entryDy=0;strokeColor=#007FFF;" edge="1" parent="1" source="dyvwr03DCd8j8Xf0D3im-35" target="dyvwr03DCd8j8Xf0D3im-40">
          <mxGeometry relative="1" as="geometry" />
        </mxCell>
        <mxCell id="OibQYzFPgmX8QQOxZoUr-26" style="edgeStyle=orthogonalEdgeStyle;rounded=0;orthogonalLoop=1;jettySize=auto;html=1;entryX=0.5;entryY=0;entryDx=0;entryDy=0;strokeColor=#007FFF;" edge="1" parent="1" source="dyvwr03DCd8j8Xf0D3im-35" target="dyvwr03DCd8j8Xf0D3im-41">
          <mxGeometry relative="1" as="geometry" />
        </mxCell>
        <mxCell id="dyvwr03DCd8j8Xf0D3im-35" value="TOGGLE" style="rounded=0;whiteSpace=wrap;html=1;fillColor=#f8cecc;strokeColor=#b85450;" parent="1" vertex="1">
          <mxGeometry x="610" y="220" width="100" height="50" as="geometry" />
        </mxCell>
        <mxCell id="OibQYzFPgmX8QQOxZoUr-23" style="edgeStyle=orthogonalEdgeStyle;rounded=0;orthogonalLoop=1;jettySize=auto;html=1;entryX=0;entryY=0.5;entryDx=0;entryDy=0;strokeColor=#CC0000;" edge="1" parent="1" source="dyvwr03DCd8j8Xf0D3im-39" target="dyvwr03DCd8j8Xf0D3im-40">
          <mxGeometry relative="1" as="geometry" />
        </mxCell>
        <mxCell id="dyvwr03DCd8j8Xf0D3im-39" value="RTDS BUZZER" style="rounded=0;whiteSpace=wrap;html=1;" parent="1" vertex="1">
          <mxGeometry x="420" y="310" width="100" height="50" as="geometry" />
        </mxCell>
        <mxCell id="OibQYzFPgmX8QQOxZoUr-22" value="" style="edgeStyle=orthogonalEdgeStyle;rounded=0;orthogonalLoop=1;jettySize=auto;html=1;strokeColor=#CC0000;" edge="1" parent="1" source="dyvwr03DCd8j8Xf0D3im-40" target="dyvwr03DCd8j8Xf0D3im-39">
          <mxGeometry relative="1" as="geometry" />
        </mxCell>
        <mxCell id="dyvwr03DCd8j8Xf0D3im-40" value="TSAL" style="rounded=0;whiteSpace=wrap;html=1;" parent="1" vertex="1">
          <mxGeometry x="560" y="310" width="100" height="50" as="geometry" />
        </mxCell>
        <mxCell id="dyvwr03DCd8j8Xf0D3im-41" value="ELECTRIC KEY LOCK" style="rounded=0;whiteSpace=wrap;html=1;" parent="1" vertex="1">
          <mxGeometry x="690" y="310" width="100" height="50" as="geometry" />
        </mxCell>
        <mxCell id="OibQYzFPgmX8QQOxZoUr-30" value="" style="edgeStyle=orthogonalEdgeStyle;rounded=0;orthogonalLoop=1;jettySize=auto;html=1;" edge="1" parent="1" source="dyvwr03DCd8j8Xf0D3im-48" target="dyvwr03DCd8j8Xf0D3im-49">
          <mxGeometry relative="1" as="geometry" />
        </mxCell>
        <mxCell id="dyvwr03DCd8j8Xf0D3im-48" value="AMS" style="rounded=0;whiteSpace=wrap;html=1;" parent="1" vertex="1">
          <mxGeometry x="150" y="310" width="100" height="50" as="geometry" />
        </mxCell>
        <mxCell id="OibQYzFPgmX8QQOxZoUr-32" style="edgeStyle=orthogonalEdgeStyle;rounded=0;orthogonalLoop=1;jettySize=auto;html=1;entryX=0;entryY=0.5;entryDx=0;entryDy=0;" edge="1" parent="1" source="dyvwr03DCd8j8Xf0D3im-49" target="opBt1St4BZjjfpRbZEwM-9">
          <mxGeometry relative="1" as="geometry" />
        </mxCell>
        <mxCell id="dyvwr03DCd8j8Xf0D3im-49" value="TSD" style="rounded=0;whiteSpace=wrap;html=1;" parent="1" vertex="1">
          <mxGeometry x="150" y="400" width="100" height="50" as="geometry" />
        </mxCell>
        <mxCell id="OibQYzFPgmX8QQOxZoUr-21" value="" style="edgeStyle=orthogonalEdgeStyle;rounded=0;orthogonalLoop=1;jettySize=auto;html=1;strokeColor=#CC0000;" edge="1" parent="1" source="dyvwr03DCd8j8Xf0D3im-50" target="dyvwr03DCd8j8Xf0D3im-51">
          <mxGeometry relative="1" as="geometry" />
        </mxCell>
        <mxCell id="dyvwr03DCd8j8Xf0D3im-50" value="RELAY" style="rounded=0;whiteSpace=wrap;html=1;" parent="1" vertex="1">
          <mxGeometry x="150" y="220" width="100" height="50" as="geometry" />
        </mxCell>
        <mxCell id="dyvwr03DCd8j8Xf0D3im-51" value="AMS LIGHT" style="rounded=0;whiteSpace=wrap;html=1;" parent="1" vertex="1">
          <mxGeometry x="15" y="220" width="100" height="50" as="geometry" />
        </mxCell>
        <mxCell id="dyvwr03DCd8j8Xf0D3im-61" value="RELAY" style="rounded=0;whiteSpace=wrap;html=1;" parent="1" vertex="1">
          <mxGeometry x="286.88" y="310" width="100" height="50" as="geometry" />
        </mxCell>
        <mxCell id="dyvwr03DCd8j8Xf0D3im-70" value="MOTOR&lt;br&gt;3 PHASE" style="ellipse;whiteSpace=wrap;html=1;aspect=fixed;" parent="1" vertex="1">
          <mxGeometry x="230" y="463.75" width="102.5" height="102.5" as="geometry" />
        </mxCell>
        <mxCell id="dyvwr03DCd8j8Xf0D3im-78" value="" style="endArrow=none;html=1;rounded=0;entryX=0;entryY=0.25;entryDx=0;entryDy=0;strokeColor=#7EA6E0;exitX=1;exitY=0.472;exitDx=0;exitDy=0;exitPerimeter=0;" parent="1" source="dyvwr03DCd8j8Xf0D3im-70" target="opBt1St4BZjjfpRbZEwM-11" edge="1">
          <mxGeometry width="50" height="50" relative="1" as="geometry">
            <mxPoint x="330" y="513" as="sourcePoint" />
            <mxPoint x="290" y="610" as="targetPoint" />
          </mxGeometry>
        </mxCell>
        <mxCell id="dyvwr03DCd8j8Xf0D3im-79" value="" style="endArrow=none;html=1;rounded=0;entryX=0;entryY=0.5;entryDx=0;entryDy=0;exitX=0.994;exitY=0.589;exitDx=0;exitDy=0;exitPerimeter=0;strokeColor=#97D077;" parent="1" source="dyvwr03DCd8j8Xf0D3im-70" target="opBt1St4BZjjfpRbZEwM-11" edge="1">
          <mxGeometry width="50" height="50" relative="1" as="geometry">
            <mxPoint x="370" y="760" as="sourcePoint" />
            <mxPoint x="290" y="610" as="targetPoint" />
          </mxGeometry>
        </mxCell>
        <mxCell id="dyvwr03DCd8j8Xf0D3im-80" value="" style="endArrow=none;html=1;rounded=0;exitX=0.958;exitY=0.721;exitDx=0;exitDy=0;exitPerimeter=0;entryX=0;entryY=0.75;entryDx=0;entryDy=0;strokeColor=#FFD966;" parent="1" source="dyvwr03DCd8j8Xf0D3im-70" target="opBt1St4BZjjfpRbZEwM-11" edge="1">
          <mxGeometry width="50" height="50" relative="1" as="geometry">
            <mxPoint x="240" y="660" as="sourcePoint" />
            <mxPoint x="440" y="770" as="targetPoint" />
          </mxGeometry>
        </mxCell>
        <mxCell id="dyvwr03DCd8j8Xf0D3im-82" value="" style="endArrow=classic;html=1;rounded=0;strokeColor=#007FFF;" parent="1" edge="1">
          <mxGeometry width="50" height="50" relative="1" as="geometry">
            <mxPoint x="15" y="670" as="sourcePoint" />
            <mxPoint x="95" y="670" as="targetPoint" />
          </mxGeometry>
        </mxCell>
        <mxCell id="dyvwr03DCd8j8Xf0D3im-83" value="" style="endArrow=classic;html=1;rounded=0;strokeColor=#000066;strokeWidth=3;" parent="1" edge="1">
          <mxGeometry width="50" height="50" relative="1" as="geometry">
            <mxPoint x="135" y="670" as="sourcePoint" />
            <mxPoint x="215" y="670" as="targetPoint" />
          </mxGeometry>
        </mxCell>
        <mxCell id="dyvwr03DCd8j8Xf0D3im-84" value="" style="endArrow=classic;html=1;rounded=0;" parent="1" edge="1">
          <mxGeometry width="50" height="50" relative="1" as="geometry">
            <mxPoint x="237.5" y="670" as="sourcePoint" />
            <mxPoint x="317.5" y="670" as="targetPoint" />
          </mxGeometry>
        </mxCell>
        <mxCell id="dyvwr03DCd8j8Xf0D3im-85" value="" style="endArrow=classic;html=1;rounded=0;strokeColor=#CC0000;" parent="1" edge="1">
          <mxGeometry width="50" height="50" relative="1" as="geometry">
            <mxPoint x="355" y="670" as="sourcePoint" />
            <mxPoint x="435" y="670" as="targetPoint" />
          </mxGeometry>
        </mxCell>
        <mxCell id="dyvwr03DCd8j8Xf0D3im-86" value="" style="endArrow=classic;html=1;rounded=0;strokeColor=#CC0000;dashed=1;" parent="1" edge="1">
          <mxGeometry width="50" height="50" relative="1" as="geometry">
            <mxPoint x="475" y="666.25" as="sourcePoint" />
            <mxPoint x="555" y="666.25" as="targetPoint" />
          </mxGeometry>
        </mxCell>
        <mxCell id="dyvwr03DCd8j8Xf0D3im-89" value="DATA" style="text;strokeColor=none;align=center;fillColor=none;html=1;verticalAlign=middle;whiteSpace=wrap;rounded=0;" parent="1" vertex="1">
          <mxGeometry x="25" y="630" width="80" height="33.75" as="geometry" />
        </mxCell>
        <mxCell id="dyvwr03DCd8j8Xf0D3im-90" value="SIGNAL" style="text;strokeColor=none;align=center;fillColor=none;html=1;verticalAlign=middle;whiteSpace=wrap;rounded=0;" parent="1" vertex="1">
          <mxGeometry x="135" y="630" width="60" height="30" as="geometry" />
        </mxCell>
        <mxCell id="dyvwr03DCd8j8Xf0D3im-91" value="72V" style="text;strokeColor=none;align=center;fillColor=none;html=1;verticalAlign=middle;whiteSpace=wrap;rounded=0;" parent="1" vertex="1">
          <mxGeometry x="247.5" y="630" width="60" height="30" as="geometry" />
        </mxCell>
        <mxCell id="dyvwr03DCd8j8Xf0D3im-92" value="12V" style="text;strokeColor=none;align=center;fillColor=none;html=1;verticalAlign=middle;whiteSpace=wrap;rounded=0;" parent="1" vertex="1">
          <mxGeometry x="355" y="630" width="60" height="30" as="geometry" />
        </mxCell>
        <mxCell id="dyvwr03DCd8j8Xf0D3im-93" value="5V" style="text;strokeColor=none;align=center;fillColor=none;html=1;verticalAlign=middle;whiteSpace=wrap;rounded=0;" parent="1" vertex="1">
          <mxGeometry x="485" y="630" width="60" height="30" as="geometry" />
        </mxCell>
        <mxCell id="OibQYzFPgmX8QQOxZoUr-12" style="edgeStyle=orthogonalEdgeStyle;rounded=0;orthogonalLoop=1;jettySize=auto;html=1;entryX=0.612;entryY=0.007;entryDx=0;entryDy=0;entryPerimeter=0;strokeColor=#CC0000;" edge="1" parent="1" source="opBt1St4BZjjfpRbZEwM-4" target="dyvwr03DCd8j8Xf0D3im-26">
          <mxGeometry relative="1" as="geometry">
            <Array as="points">
              <mxPoint x="530" y="45" />
              <mxPoint x="530" y="10" />
              <mxPoint x="801" y="10" />
            </Array>
          </mxGeometry>
        </mxCell>
        <mxCell id="OibQYzFPgmX8QQOxZoUr-14" style="edgeStyle=orthogonalEdgeStyle;rounded=0;orthogonalLoop=1;jettySize=auto;html=1;entryX=0.42;entryY=-0.043;entryDx=0;entryDy=0;entryPerimeter=0;strokeColor=#CC0000;" edge="1" parent="1" source="dyvwr03DCd8j8Xf0D3im-24" target="dyvwr03DCd8j8Xf0D3im-35">
          <mxGeometry relative="1" as="geometry">
            <Array as="points">
              <mxPoint x="740" y="170" />
              <mxPoint x="652" y="170" />
            </Array>
          </mxGeometry>
        </mxCell>
        <mxCell id="OibQYzFPgmX8QQOxZoUr-16" style="edgeStyle=orthogonalEdgeStyle;rounded=0;orthogonalLoop=1;jettySize=auto;html=1;entryX=0.705;entryY=0.019;entryDx=0;entryDy=0;entryPerimeter=0;strokeColor=#CC0000;dashed=1;" edge="1" parent="1" source="dyvwr03DCd8j8Xf0D3im-26" target="dyvwr03DCd8j8Xf0D3im-34">
          <mxGeometry relative="1" as="geometry">
            <Array as="points">
              <mxPoint x="490" y="205" />
            </Array>
          </mxGeometry>
        </mxCell>
        <mxCell id="OibQYzFPgmX8QQOxZoUr-17" style="edgeStyle=orthogonalEdgeStyle;rounded=0;orthogonalLoop=1;jettySize=auto;html=1;entryX=0.632;entryY=-0.012;entryDx=0;entryDy=0;entryPerimeter=0;dashed=1;strokeColor=#CC0000;" edge="1" parent="1" source="dyvwr03DCd8j8Xf0D3im-26" target="dyvwr03DCd8j8Xf0D3im-35">
          <mxGeometry relative="1" as="geometry">
            <Array as="points">
              <mxPoint x="673" y="205" />
            </Array>
          </mxGeometry>
        </mxCell>
        <mxCell id="OibQYzFPgmX8QQOxZoUr-36" value="" style="endArrow=none;html=1;rounded=0;entryX=0.5;entryY=1;entryDx=0;entryDy=0;exitX=0.5;exitY=0;exitDx=0;exitDy=0;" edge="1" parent="1" source="dyvwr03DCd8j8Xf0D3im-48" target="dyvwr03DCd8j8Xf0D3im-50">
          <mxGeometry width="50" height="50" relative="1" as="geometry">
            <mxPoint x="430" y="350" as="sourcePoint" />
            <mxPoint x="480" y="300" as="targetPoint" />
          </mxGeometry>
        </mxCell>
        <mxCell id="OibQYzFPgmX8QQOxZoUr-37" value="" style="endArrow=none;html=1;rounded=0;exitX=0.5;exitY=1;exitDx=0;exitDy=0;entryX=0.5;entryY=0;entryDx=0;entryDy=0;" edge="1" parent="1" source="dyvwr03DCd8j8Xf0D3im-61" target="opBt1St4BZjjfpRbZEwM-9">
          <mxGeometry width="50" height="50" relative="1" as="geometry">
            <mxPoint x="430" y="260" as="sourcePoint" />
            <mxPoint x="480" y="210" as="targetPoint" />
          </mxGeometry>
        </mxCell>
        <mxCell id="OibQYzFPgmX8QQOxZoUr-42" style="edgeStyle=orthogonalEdgeStyle;rounded=0;orthogonalLoop=1;jettySize=auto;html=1;entryX=-0.016;entryY=0.494;entryDx=0;entryDy=0;entryPerimeter=0;strokeWidth=3;strokeColor=#000066;" edge="1" parent="1" source="opBt1St4BZjjfpRbZEwM-11" target="opBt1St4BZjjfpRbZEwM-13">
          <mxGeometry relative="1" as="geometry">
            <Array as="points">
              <mxPoint x="688" y="525" />
            </Array>
          </mxGeometry>
        </mxCell>
      </root>
    </mxGraphModel>
  </diagram>
</mxfile>
